PathFileType	4	(X/Y/Z)	C:\Users\Basilio\Documents\Thesis Gigler\squatting_fais\c3dfiles\038\SLS_back_pre1\markers_experimental.trc
DataRate	CameraRate	NumFrames	NumMarkers	Units	OrigDataRate	OrigDataStartFrame	OrigNumFrames
200.000000	200.000000	4	63	mm	200.000000	724	1448
Frame#	Time	FHD			LBHD			RBHD			C7			T10			CLAV			LSHO			LUUPA			LMUPA			LDUPA			LLEP			LMEP			LUL			LRFIN			RSHO			RUPA1			RMUPA			RDUPA			RLEP			RMEP			RRAD			RUL			RUFIN			LASI			RASI			USACR			LSACR			RSACR			LTHI1			LTHI2			LTHI3			LTHI4			LLFC			LMFC			LTIB1			LTIB2			LTIB3			LTIB4			LLMAL			LMMAL			LHEE			LMT1			LMT2			LMT5			RTHI			RTHI2			RTHI3			RTHI4			RLFC			RMFC			RTIB1			RTIB2			RTIB3			RTIB4			RLMAL			RMMAL			RHEE			RMT1			RMT2			RMT5			LRAD			*61			*62			
		X1	Y1	Z1	X2	Y2	Z2	X3	Y3	Z3	X4	Y4	Z4	X5	Y5	Z5	X6	Y6	Z6	X7	Y7	Z7	X8	Y8	Z8	X9	Y9	Z9	X10	Y10	Z10	X11	Y11	Z11	X12	Y12	Z12	X13	Y13	Z13	X14	Y14	Z14	X15	Y15	Z15	X16	Y16	Z16	X17	Y17	Z17	X18	Y18	Z18	X19	Y19	Z19	X20	Y20	Z20	X21	Y21	Z21	X22	Y22	Z22	X23	Y23	Z23	X24	Y24	Z24	X25	Y25	Z25	X26	Y26	Z26	X27	Y27	Z27	X28	Y28	Z28	X29	Y29	Z29	X30	Y30	Z30	X31	Y31	Z31	X32	Y32	Z32	X33	Y33	Z33	X34	Y34	Z34	X35	Y35	Z35	X36	Y36	Z36	X37	Y37	Z37	X38	Y38	Z38	X39	Y39	Z39	X40	Y40	Z40	X41	Y41	Z41	X42	Y42	Z42	X43	Y43	Z43	X44	Y44	Z44	X45	Y45	Z45	X46	Y46	Z46	X47	Y47	Z47	X48	Y48	Z48	X49	Y49	Z49	X50	Y50	Z50	X51	Y51	Z51	X52	Y52	Z52	X53	Y53	Z53	X54	Y54	Z54	X55	Y55	Z55	X56	Y56	Z56	X57	Y57	Z57	X58	Y58	Z58	X59	Y59	Z59	X60	Y60	Z60	X61	Y61	Z61	X62	Y62	Z62	X63	Y63	Z63	

725	3.62	-166.5321960449219	1559.492797851563	-1085.3818359375	-319.0846557617188	1498.25927734375	-1143.296875	-308.1084899902344	1486.110473632813	-999.0936279296877	-358.2483215332032	1336.57763671875	-1063.45703125	-408.9874877929689	1066.152587890625	-1020.914855957031	-218.3041381835938	1296.343505859375	-1078.162231445313	-283.6702270507813	1337.931762695313	-1215.791137695313	-135.1755676269532	1275.541137695313	-1357.831176757813	-105.1225509643555	1309.185424804688	-1333.966430664063	-67.08746337890626	1283.516967773438	-1372.876342773438	-4.647790908813477	1287.618408203125	-1379.625244140625	7.791950702667238	1212.58740234375	-1357.943115234375	290.2720336914063	1305.673217773438	-1334.717651367188	349.9251098632813	1318.1962890625	-1241.362670898438	-252.5488281250001	1345.231811523438	-938.7316894531252	-93.40586090087892	1328.678344726563	-826.290222167969	-59.7065887451172	1335.265502929688	-861.036560058594	-24.98848533630372	1325.037231445313	-812.321960449219	48.76566314697267	1324.171875	-805.317077636719	55.25943756103517	1245.140869140625	-818.4993286132815	320.4322814941407	1320.910034179688	-902.8357543945315	335.2862548828126	1342.58154296875	-837.844909667969	396.1467895507814	1358.290893554688	-918.893005371094	-270.4450988769532	853.829284667969	-1112.241577148438	-292.3418579101563	872.5017089843752	-864.8120727539065	-444.6048278808595	926.6684570312502	-1005.099914550781	-458.218475341797	896.8245849609377	-1033.620361328125	-464.1466064453126	899.6236572265627	-976.6728515625002	-178.9387359619141	595.0059814453126	-1176.9365234375	-109.5387191772461	544.2705688476564	-1172.4658203125	-75.42071533203126	570.1821289062501	-1146.476440429688	-109.0746231079102	485.040496826172	-1156.765502929688	-89.04262542724611	435.5127868652345	-1141.899047851563	-82.68572998046876	441.8537902832032	-1028.059814453125	-140.2430114746094	275.4961853027344	-1039.344604492188	-202.3350372314454	252.8662261962891	-1100.391235351563	-172.8694152832032	235.1788177490235	-1067.077392578125	-228.7870788574219	184.9524841308594	-1026.488403320313	-372.8634338378907	115.2630157470703	-1039.8759765625	-330.7346801757813	131.3601226806641	-965.5435180664065	-432.8385620117189	101.3163681030274	-980.3264160156252	-233.6933288574219	45.00577926635743	-975.1924438476565	-225.7961730957032	44.12255859375001	-1025.3115234375	-271.2715759277344	35.14841079711915	-1072.043212890625	-351.9522705078126	606.1685180664064	-783.7591552734377	-317.1316223144532	549.7697753906251	-769.2012329101565	-284.0715332031251	549.5231933593751	-771.5494384765627	-347.6159973144532	469.4624938964845	-775.109313964844	-347.4023742675782	367.5071716308594	-781.8684692382815	-337.1221313476563	352.4614257812501	-896.229431152344	-478.264129638672	261.5731201171876	-817.747009277344	-581.4197387695314	315.3489379882813	-807.2301025390627	-563.5277709960939	271.0429992675782	-808.4753417968752	-603.1957397460939	243.0113220214844	-843.7124023437502	-734.2489013671876	273.6731567382813	-841.4004516601565	-711.5238647460939	235.9632110595704	-912.749938964844	-753.4714355468751	323.1495971679688	-918.731628417969	-795.4839477539065	110.2350997924805	-895.909851074219	-805.4122314453127	116.1524124145508	-848.7194824218752	-832.4201660156252	165.7244262695313	-819.0735473632815	279.2156677246094	1283.61181640625	-1266.721069335938	nan	nan	nan	nan	nan	nan	
726	3.625	-167.0901794433594	1559.012329101563	-1085.431518554688	-318.7752075195313	1497.713623046875	-1143.268310546875	-307.8468017578126	1485.720581054688	-999.1211547851565	-358.1528930664063	1336.201782226563	-1063.352661132813	-409.071502685547	1065.66650390625	-1020.748840332031	-218.237777709961	1295.816162109375	-1078.056274414063	-283.3898925781251	1337.38037109375	-1215.6513671875	-135.0929260253907	1274.989501953125	-1357.697143554688	-105.0937576293946	1308.497314453125	-1333.805786132813	-67.03188323974611	1283.06689453125	-1372.765869140625	-4.520010948181153	1287.1455078125	-1379.673461914063	7.849006652832033	1212.056884765625	-1357.952758789063	290.4006958007813	1305.0029296875	-1334.753662109375	350.0868225097657	1317.647216796875	-1241.399780273438	-252.1820373535157	1344.56884765625	-938.7244262695315	-93.08076477050783	1328.466430664063	-826.2302856445315	-59.68350219726564	1335.098876953125	-861.0089111328127	-24.73996353149415	1324.602172851563	-812.3435058593752	49.14149093627931	1323.632446289063	-805.362731933594	55.48228073120119	1244.755004882813	-818.5123291015627	320.7508544921876	1320.305786132813	-902.9532470703127	335.5814514160157	1342.000854492188	-837.9832763671877	396.5195312500001	1357.804077148438	-919.1865234375002	-270.6100463867188	853.4550781250002	-1112.1142578125	-292.6164245605469	871.882263183594	-864.7673950195315	-444.8196716308595	926.2559204101565	-1005.002136230469	-458.8991088867189	896.217468261719	-1033.790893554688	-464.0951232910157	899.2047119140627	-976.4737548828127	-178.8279876708985	594.7462158203126	-1176.59814453125	-109.2138366699219	544.0286254882814	-1172.035034179688	-75.04689788818361	569.9031982421876	-1145.80078125	-108.1824188232422	484.4463195800782	-1156.267333984375	-88.60435485839845	435.3594970703126	-1141.521240234375	-82.34738159179689	441.6732177734376	-1027.53662109375	-140.0824279785157	275.4376831054688	-1038.934326171875	-202.0958404541016	252.8638153076172	-1100.0546875	-172.6206512451172	235.2067108154297	-1066.669067382813	-228.6285552978516	184.813705444336	-1026.181274414063	-372.6953125000001	115.2651062011719	-1039.842407226563	-330.7229614257813	131.3170776367188	-965.4973144531252	-432.8395080566407	101.3134078979492	-980.3239746093752	-233.6411743164063	45.02485656738282	-975.0900878906252	-225.7268981933594	43.99596023559571	-1025.303466796875	-271.2085571289063	35.18817520141602	-1072.020751953125	-352.0674743652344	605.5843505859376	-783.8118286132815	-317.2296142578126	549.2821655273439	-769.2650146484377	-284.2806091308594	549.0192871093751	-771.6230468750002	-347.7163085937501	468.9774475097657	-775.2159423828127	-347.1917724609376	367.1286010742188	-781.892272949219	-337.1689453125001	351.9508666992188	-896.4340820312502	-478.4027404785157	261.1699829101563	-818.0657348632815	-581.5046997070314	315.1064147949219	-807.3510742187502	-563.6621704101564	270.7658081054688	-808.625183105469	-603.4448852539064	242.8066406250001	-843.9588623046877	-734.4667968750001	273.7349243164063	-841.5972290039065	-711.7212524414064	235.9466400146485	-912.9036865234377	-753.6326293945314	323.2239685058594	-918.6907348632815	-795.854675292969	110.4259109497071	-896.0909423828127	-805.6763916015627	116.1809158325196	-849.0397949218752	-832.5654907226565	165.4397735595703	-819.231628417969	279.3611755371094	1282.951171875	-1266.679077148438	nan	nan	nan	nan	nan	nan	
727	3.63	-166.9618835449219	1558.304931640625	-1085.373291015625	-318.5674438476563	1497.222045898438	-1143.160400390625	-307.7039794921876	1485.079956054688	-998.8925781250002	-357.9496765136719	1335.73681640625	-1063.313598632813	-409.0730895996095	1065.340576171875	-1020.616149902344	-218.1243743896485	1295.25439453125	-1077.978271484375	-283.1179199218751	1336.802490234375	-1215.572509765625	-134.9951629638672	1274.519165039063	-1357.648559570313	-105.0728225708008	1308.008911132813	-1333.788696289063	-67.33394622802736	1282.716796875	-1372.784301757813	-4.434645652770997	1286.710205078125	-1379.600219726563	7.920578002929689	1211.658935546875	-1357.80224609375	290.5392150878907	1304.522338867188	-1334.684814453125	350.1645202636719	1317.189819335938	-1241.386840820313	-252.0059509277344	1343.645263671875	-938.3198852539065	-92.6060028076172	1327.713134765625	-826.1652832031252	-59.48876190185548	1334.645874023438	-860.943054199219	-24.60352516174317	1324.002197265625	-812.3474731445315	49.26752090454103	1323.158325195313	-805.3442382812502	56.05057525634767	1244.449096679688	-818.4631347656252	320.9855651855469	1319.817749023438	-903.0039672851565	336.0130920410157	1341.3291015625	-838.201843261719	396.6990356445314	1357.616821289063	-919.565856933594	-270.6868286132813	852.9915771484377	-1111.916259765625	-292.7596130371094	871.4490356445315	-864.6151123046877	-444.8226013183595	925.302917480469	-1004.860595703125	-459.065887451172	895.752868652344	-1033.75341796875	-464.3204650878907	898.6328735351565	-976.3140258789065	-178.4400787353516	594.4197998046876	-1176.158325195313	-108.9128570556641	543.8651123046876	-1171.61376953125	-74.74266815185548	569.7104492187501	-1145.199951171875	-107.7693862915039	484.3688964843751	-1155.7255859375	-88.20271301269533	435.1566162109376	-1141.07666015625	-82.09022521972658	441.5981750488282	-1026.88134765625	-139.9264373779297	275.3369750976563	-1038.493286132813	-201.9293060302735	252.8721466064454	-1099.820190429688	-172.4541931152344	235.2682037353516	-1066.34375	-228.530746459961	184.7184143066407	-1025.915283203125	-373.3335571289063	115.4786529541016	-1040.4345703125	-330.6913146972657	131.2967071533203	-965.372741699219	-432.847869873047	101.3072357177735	-980.3094482421877	-233.6336059570313	44.9563102722168	-975.0842895507815	-225.768539428711	44.0510482788086	-1025.267944335938	-271.1886596679688	35.26132202148438	-1071.979736328125	-352.2393798828126	605.1065063476564	-783.8775024414065	-316.9626770019532	549.1973266601564	-768.9116210937502	-284.4150085449219	548.5238037109376	-771.6314697265627	-347.7501831054688	468.4311828613282	-775.3000488281252	-347.2894897460938	366.5350952148438	-781.9761962890627	-337.3515930175782	351.4342041015626	-896.5273437500002	-478.6041259765626	260.8365173339844	-818.4840087890627	-581.6130371093751	314.8040466308594	-807.4088134765627	-563.8437500000001	270.3581848144532	-808.8026123046877	-603.6460571289064	242.6593780517579	-844.125183105469	-734.4971313476564	273.5490722656251	-841.559509277344	-711.9720458984376	236.0350036621094	-913.038024902344	-753.8545532226564	323.2194824218751	-918.6402587890627	-796.1494140625002	110.5033569335938	-896.214050292969	-805.986267089844	116.0875473022461	-849.2803344726565	-832.8472290039065	165.4897003173828	-819.4936523437502	279.3275146484376	1282.665405273438	-1266.722534179688	nan	nan	nan	nan	nan	nan	
728	3.635	-165.9203491210938	1557.539428710938	-1085.236450195313	-318.3852539062501	1496.79248046875	-1143.090087890625	-307.4216918945313	1484.569702148438	-998.803161621094	-357.8484191894532	1335.261962890625	-1063.216064453125	-409.044647216797	1065.0029296875	-1020.470703125	-217.8705596923829	1294.659912109375	-1077.869140625	-283.0076599121094	1336.343505859375	-1215.5087890625	-134.8542938232422	1274.046630859375	-1357.562744140625	-104.9536437988282	1307.566040039063	-1333.7275390625	-67.2046356201172	1282.2783203125	-1372.800903320313	-3.872259855270387	1285.916259765625	-1379.48046875	8.073547363281252	1211.054565429688	-1357.77978515625	290.7097778320313	1304.065795898438	-1334.648193359375	350.2829284667969	1316.788696289063	-1241.349243164063	-251.6124572753907	1343.290283203125	-938.4150390625002	-92.20241546630861	1327.354370117188	-826.1027832031252	-59.20782852172853	1334.167236328125	-860.8897705078127	-24.32866477966309	1323.373291015625	-812.2847290039065	49.4855308532715	1322.66748046875	-805.3718261718752	56.31825256347658	1243.810791015625	-818.4617309570315	321.1812744140626	1319.28125	-903.148620605469	336.1841735839844	1340.807250976563	-838.294616699219	397.0749816894532	1356.980224609375	-919.6456298828127	-270.6291503906251	852.5928955078127	-1111.781372070313	-293.0034179687501	871.0081176757815	-864.496520996094	-445.1236877441407	925.4587402343752	-1004.86279296875	-459.1095275878907	895.3024902343752	-1033.702880859375	-464.4844665527345	898.183044433594	-976.306091308594	-178.2928619384766	594.1841430664064	-1175.773315429688	-108.5900421142578	543.6188964843751	-1171.1513671875	-74.47784423828126	569.5953979492189	-1144.5986328125	-107.9013137817383	484.571014404297	-1155.275268554688	-87.72509002685548	435.0552673339845	-1140.770751953125	-81.86280822753908	441.2875366210939	-1026.285400390625	-139.8033447265625	275.2287292480469	-1038.132446289063	-201.6785430908204	252.7946014404297	-1099.562622070313	-172.2960968017578	234.6638793945313	-1066.362548828125	-228.4210357666016	184.6999053955078	-1025.799194335938	-373.3564758300782	115.5530853271485	-1040.440795898438	-330.7266845703126	131.1432800292969	-965.2546997070315	-432.8384094238282	101.3628921508789	-980.3304443359377	-233.6400756835938	44.93986511230469	-975.069030761719	-225.7661285400391	44.05010604858399	-1025.267822265625	-271.2120971679688	35.31579589843751	-1071.908081054688	-352.3865356445313	604.6698608398439	-783.8880004882815	-317.5290527343751	548.2639160156251	-769.5035400390627	-284.4050598144532	547.9468383789064	-771.6397094726565	-347.7688903808594	467.7493286132814	-775.342468261719	-347.3643188476563	365.9168090820313	-782.0228271484377	-337.3518066406251	351.0682373046876	-896.6331176757815	-478.7544250488282	260.5111694335938	-818.7855224609377	-581.8781127929689	314.2985534667969	-807.5856933593752	-564.0418701171876	269.9555358886719	-808.902282714844	-603.7858276367189	242.3432922363282	-844.5115356445315	-734.5967407226564	273.4450988769532	-841.6455688476565	-712.1510620117189	236.0590362548829	-913.1648559570315	-753.9647827148439	323.3226013183594	-918.6540527343752	-796.4685058593752	110.4863815307617	-896.3919067382815	-806.2700805664065	116.0702819824219	-849.5770263671877	-833.2163085937502	165.135498046875	-819.7371826171877	279.2997436523438	1282.331420898438	-1266.776611328125	nan	nan	nan	nan	nan	nan	
